<mxfile host="app.diagrams.net" modified="2024-04-17T15:42:01.932Z" agent="Mozilla/5.0 (X11; Linux x86_64; rv:109.0) Gecko/20100101 Firefox/115.0" etag="2ggwIvGemCRVbvtmcVff" version="24.2.5" type="device">
  <diagram name="PÃ¡gina-1" id="gHQb96KS4q3t2H0Nk5Vd">
    <mxGraphModel dx="1165" dy="588" grid="1" gridSize="10" guides="1" tooltips="1" connect="1" arrows="1" fold="1" page="1" pageScale="1" pageWidth="827" pageHeight="1169" background="#cafeab" math="0" shadow="0">
      <root>
        <mxCell id="0" />
        <mxCell id="1" parent="0" />
        <mxCell id="tx5NOg9aVxcgbztPqN1w-9" style="edgeStyle=orthogonalEdgeStyle;rounded=0;orthogonalLoop=1;jettySize=auto;html=1;exitX=0.5;exitY=1;exitDx=0;exitDy=0;entryX=0.5;entryY=0;entryDx=0;entryDy=0;" edge="1" parent="1" source="5kBc1PmtwXuqb3jVYr31-1" target="tx5NOg9aVxcgbztPqN1w-1">
          <mxGeometry relative="1" as="geometry" />
        </mxCell>
        <mxCell id="5kBc1PmtwXuqb3jVYr31-1" value="&lt;font style=&quot;font-size: 12px;&quot;&gt;1&lt;/font&gt;" style="ellipse;whiteSpace=wrap;html=1;aspect=fixed;" parent="1" vertex="1">
          <mxGeometry x="360" y="200" width="40" height="40" as="geometry" />
        </mxCell>
        <mxCell id="tx5NOg9aVxcgbztPqN1w-10" style="edgeStyle=orthogonalEdgeStyle;rounded=0;orthogonalLoop=1;jettySize=auto;html=1;exitX=0.5;exitY=1;exitDx=0;exitDy=0;" edge="1" parent="1" source="tx5NOg9aVxcgbztPqN1w-1" target="tx5NOg9aVxcgbztPqN1w-2">
          <mxGeometry relative="1" as="geometry" />
        </mxCell>
        <mxCell id="tx5NOg9aVxcgbztPqN1w-1" value="2" style="ellipse;whiteSpace=wrap;html=1;aspect=fixed;" vertex="1" parent="1">
          <mxGeometry x="360" y="280" width="40" height="40" as="geometry" />
        </mxCell>
        <mxCell id="tx5NOg9aVxcgbztPqN1w-11" style="rounded=0;orthogonalLoop=1;jettySize=auto;html=1;exitX=0;exitY=0.5;exitDx=0;exitDy=0;entryX=0.5;entryY=0;entryDx=0;entryDy=0;" edge="1" parent="1" source="tx5NOg9aVxcgbztPqN1w-2" target="tx5NOg9aVxcgbztPqN1w-3">
          <mxGeometry relative="1" as="geometry" />
        </mxCell>
        <mxCell id="tx5NOg9aVxcgbztPqN1w-12" style="rounded=0;orthogonalLoop=1;jettySize=auto;html=1;exitX=0;exitY=1;exitDx=0;exitDy=0;entryX=0.5;entryY=0;entryDx=0;entryDy=0;" edge="1" parent="1" source="tx5NOg9aVxcgbztPqN1w-2" target="tx5NOg9aVxcgbztPqN1w-4">
          <mxGeometry relative="1" as="geometry" />
        </mxCell>
        <mxCell id="tx5NOg9aVxcgbztPqN1w-13" style="rounded=0;orthogonalLoop=1;jettySize=auto;html=1;exitX=1;exitY=1;exitDx=0;exitDy=0;entryX=0.5;entryY=0;entryDx=0;entryDy=0;" edge="1" parent="1" source="tx5NOg9aVxcgbztPqN1w-2" target="tx5NOg9aVxcgbztPqN1w-5">
          <mxGeometry relative="1" as="geometry" />
        </mxCell>
        <mxCell id="tx5NOg9aVxcgbztPqN1w-14" style="rounded=0;orthogonalLoop=1;jettySize=auto;html=1;exitX=1;exitY=0.5;exitDx=0;exitDy=0;entryX=0.5;entryY=0;entryDx=0;entryDy=0;" edge="1" parent="1" source="tx5NOg9aVxcgbztPqN1w-2" target="tx5NOg9aVxcgbztPqN1w-6">
          <mxGeometry relative="1" as="geometry" />
        </mxCell>
        <mxCell id="tx5NOg9aVxcgbztPqN1w-2" value="3" style="ellipse;whiteSpace=wrap;html=1;aspect=fixed;" vertex="1" parent="1">
          <mxGeometry x="360" y="360" width="40" height="40" as="geometry" />
        </mxCell>
        <mxCell id="tx5NOg9aVxcgbztPqN1w-15" style="rounded=0;orthogonalLoop=1;jettySize=auto;html=1;exitX=0.5;exitY=1;exitDx=0;exitDy=0;entryX=0;entryY=0.5;entryDx=0;entryDy=0;" edge="1" parent="1" source="tx5NOg9aVxcgbztPqN1w-3" target="tx5NOg9aVxcgbztPqN1w-7">
          <mxGeometry relative="1" as="geometry" />
        </mxCell>
        <mxCell id="tx5NOg9aVxcgbztPqN1w-3" value="4" style="ellipse;whiteSpace=wrap;html=1;aspect=fixed;" vertex="1" parent="1">
          <mxGeometry x="240" y="440" width="40" height="40" as="geometry" />
        </mxCell>
        <mxCell id="tx5NOg9aVxcgbztPqN1w-16" style="rounded=0;orthogonalLoop=1;jettySize=auto;html=1;exitX=0.5;exitY=1;exitDx=0;exitDy=0;entryX=0;entryY=0;entryDx=0;entryDy=0;" edge="1" parent="1" source="tx5NOg9aVxcgbztPqN1w-4" target="tx5NOg9aVxcgbztPqN1w-7">
          <mxGeometry relative="1" as="geometry" />
        </mxCell>
        <mxCell id="tx5NOg9aVxcgbztPqN1w-4" value="5" style="ellipse;whiteSpace=wrap;html=1;aspect=fixed;" vertex="1" parent="1">
          <mxGeometry x="320" y="440" width="40" height="40" as="geometry" />
        </mxCell>
        <mxCell id="tx5NOg9aVxcgbztPqN1w-17" style="rounded=0;orthogonalLoop=1;jettySize=auto;html=1;exitX=0.5;exitY=1;exitDx=0;exitDy=0;entryX=1;entryY=0;entryDx=0;entryDy=0;" edge="1" parent="1" source="tx5NOg9aVxcgbztPqN1w-5" target="tx5NOg9aVxcgbztPqN1w-7">
          <mxGeometry relative="1" as="geometry" />
        </mxCell>
        <mxCell id="tx5NOg9aVxcgbztPqN1w-5" value="6" style="ellipse;whiteSpace=wrap;html=1;aspect=fixed;" vertex="1" parent="1">
          <mxGeometry x="400" y="440" width="40" height="40" as="geometry" />
        </mxCell>
        <mxCell id="tx5NOg9aVxcgbztPqN1w-19" style="rounded=0;orthogonalLoop=1;jettySize=auto;html=1;exitX=0.5;exitY=1;exitDx=0;exitDy=0;entryX=1;entryY=0.5;entryDx=0;entryDy=0;" edge="1" parent="1" source="tx5NOg9aVxcgbztPqN1w-6" target="tx5NOg9aVxcgbztPqN1w-7">
          <mxGeometry relative="1" as="geometry" />
        </mxCell>
        <mxCell id="tx5NOg9aVxcgbztPqN1w-6" value="7" style="ellipse;whiteSpace=wrap;html=1;aspect=fixed;" vertex="1" parent="1">
          <mxGeometry x="480" y="440" width="40" height="40" as="geometry" />
        </mxCell>
        <mxCell id="tx5NOg9aVxcgbztPqN1w-7" value="8" style="ellipse;whiteSpace=wrap;html=1;aspect=fixed;" vertex="1" parent="1">
          <mxGeometry x="360" y="520" width="40" height="40" as="geometry" />
        </mxCell>
      </root>
    </mxGraphModel>
  </diagram>
</mxfile>
